<svg id="e5o2vh5izxwy1" xmlns="http://www.w3.org/2000/svg" xmlns:xlink="http://www.w3.org/1999/xlink" viewBox="0 0 75 75" shape-rendering="geometricPrecision" text-rendering="geometricPrecision"><style><![CDATA[#e5o2vh5izxwy2 {animation: e5o2vh5izxwy2_c_o 1500ms linear infinite normal forwards}@keyframes e5o2vh5izxwy2_c_o { 0% {opacity: 0} 26.666667% {opacity: 1} 53.333333% {opacity: 1} 60% {opacity: 0} 100% {opacity: 0} }#e5o2vh5izxwy4 {animation: e5o2vh5izxwy4_c_o 1500ms linear infinite normal forwards}@keyframes e5o2vh5izxwy4_c_o { 0% {opacity: 0} 20% {opacity: 0} 53.333333% {opacity: 1} 80% {opacity: 1} 86.666667% {opacity: 0} 100% {opacity: 0} }#e5o2vh5izxwy5 {animation: e5o2vh5izxwy5_c_o 1500ms linear infinite normal forwards}@keyframes e5o2vh5izxwy5_c_o { 0% {opacity: 0} 46.666667% {opacity: 0} 80% {opacity: 1} 100% {opacity: 0} }]]></style><path id="e5o2vh5izxwy2" d="M48,27.600000C52.263804,34.096183,52.263804,42.503817,48,49M55.100000,-21.528640C62.901725,-10.944282,82.837404,-20.213440,75.035679,-9.629082M55.100000,-18.568296C66.502479,-4.374724,92.248646,-23.822654,80.846167,-9.629082" transform="matrix(1 0 0 1 -3.74604805534968 0.20000000375931)" opacity="0" fill="none" stroke="rgb(255,255,255)" stroke-width="7" stroke-linecap="round"/><path id="e5o2vh5izxwy3" d="M39.389000,13.769000L22.235000,28.606000L6,28.606000L6,47.699000L21.989000,47.699000L39.389000,62.750000L39.389000,13.769000Z" transform="matrix(1 0 0 1 -1.88900000000002 0.23099999999999)" fill="rgb(251,251,251)" stroke="rgb(17,17,17)" stroke-width="5" stroke-opacity="0"/><path id="e5o2vh5izxwy4" d="M48.148987,27.600000C52.412791,34.096183,52.412791,42.503817,48.148987,49M55.248987,20.500000C63.050712,31.084358,63.050712,45.515642,55.248987,56.100000M65.848629,-10.429082C77.251108,3.764490,89.021073,-32.622993,77.618594,-19.368296" transform="matrix(1 0 0 1 -3.99999999534967 0.00000000375932)" opacity="0" fill="none" stroke="rgb(255,255,255)" stroke-width="7" stroke-linecap="round"/><path id="e5o2vh5izxwy5" d="M48,27.600000C52.263804,34.096183,52.263804,42.503817,48,49M55.100000,20.500000C62.901725,31.084358,62.901725,45.515642,55.100000,56.100000M61.600000,14C73.002479,28.193572,73.002479,48.406428,61.600000,62.600000" transform="matrix(1 0 0 1 -3.64116105534966 0.35961354375932)" opacity="0" fill="none" stroke="rgb(255,255,255)" stroke-width="7" stroke-linecap="round"/></svg>